<?xml version="1.0" encoding="UTF-8" standalone="no"?>
<svg width="192" height="192" xmlns="http://www.w3.org/2000/svg" xmlns:xlink="http://www.w3.org/1999/xlink">
  <defs>
    <!-- 背景グラデーション -->
    <linearGradient id="bgGradient" x1="0%" y1="0%" x2="100%" y2="100%">
      <stop offset="0%" style="stop-color:#1a1a2e;stop-opacity:1" />
      <stop offset="100%" style="stop-color:#0f3460;stop-opacity:1" />
    </linearGradient>
    
    <!-- 水面パターン -->
    <pattern id="waterPattern" x="0" y="0" width="192" height="48" patternUnits="userSpaceOnUse">
      <path d="M0,16 C48,0 96,32 144,16 C192,0 240,32 288,16 L288,48 L0,48 Z" fill="#16213e" opacity="0.4" />
      <path d="M0,24 C48,8 96,40 144,24 C192,8 240,40 288,24 L288,48 L0,48 Z" fill="#16213e" opacity="0.3" />
    </pattern>
    
    <!-- サメグラデーション -->
    <linearGradient id="sharkGradient" x1="0%" y1="0%" x2="100%" y2="100%">
      <stop offset="0%" style="stop-color:#6a8caa;stop-opacity:1" />
      <stop offset="100%" style="stop-color:#2c4c6a;stop-opacity:1" />
    </linearGradient>
    
    <!-- ポイグラデーション -->
    <radialGradient id="poiGradient" cx="50%" cy="50%" r="50%" fx="50%" fy="50%">
      <stop offset="0%" style="stop-color:#f1f1f1;stop-opacity:0.95" />
      <stop offset="70%" style="stop-color:#e0e0e0;stop-opacity:0.9" />
      <stop offset="100%" style="stop-color:#d0d0d0;stop-opacity:0.8" />
    </radialGradient>
    
    <!-- 水滴 -->
    <filter id="dropletFilter" x="-50%" y="-50%" width="200%" height="200%">
      <feGaussianBlur in="SourceAlpha" stdDeviation="2" result="blur" />
      <feOffset in="blur" dx="1" dy="1" result="offsetBlur" />
      <feSpecularLighting in="blur" surfaceScale="5" specularConstant="0.75" 
                          specularExponent="20" lighting-color="#white" result="specOut">
        <fePointLight x="30" y="30" z="60" />
      </feSpecularLighting>
      <feComposite in="specOut" in2="SourceAlpha" operator="in" result="specOut" />
      <feComposite in="SourceGraphic" in2="specOut" operator="arithmetic" k1="0" k2="1" k3="1" k4="0" />
    </filter>
    
    <!-- 背景パターン -->
    <pattern id="bgPattern" x="0" y="0" width="30" height="30" patternUnits="userSpaceOnUse">
      <rect x="0" y="0" width="30" height="30" fill="#1a1a2e" />
      <rect x="15" y="0" width="15" height="15" fill="#16213e" opacity="0.5" />
      <rect x="0" y="15" width="15" height="15" fill="#16213e" opacity="0.5" />
    </pattern>
  </defs>
  
  <!-- 背景 -->
  <rect x="0" y="0" width="192" height="192" rx="38" ry="38" fill="url(#bgGradient)" />
  <rect x="0" y="0" width="192" height="192" rx="38" ry="38" fill="url(#bgPattern)" opacity="0.2" />
  
  <!-- 水面パターン -->
  <rect x="0" y="120" width="192" height="72" fill="url(#waterPattern)" />
  
  <!-- ポイ -->
  <g transform="translate(100, 56) scale(0.6) rotate(15)">
    <circle cx="60" cy="60" r="55" fill="#111111" stroke="#222222" stroke-width="0.5" />
    <circle cx="60" cy="60" r="52" fill="url(#poiGradient)" stroke="#333333" stroke-width="0.5" />
    <circle cx="60" cy="60" r="45" fill="none" stroke="#555555" stroke-width="0.7" stroke-dasharray="3,2" />
    <rect x="85" y="55" width="25" height="10" rx="3" ry="3" fill="#e94560" stroke="#c13652" stroke-width="0.7" />
  </g>
  
  <!-- サメ -->
  <g transform="translate(60, 110) scale(0.9)">
    <!-- サメの体 -->
    <path d="M65,20 C85,15 95,35 80,50 C95,65 85,85 65,80 C45,85 35,65 50,50 C35,35 45,15 65,20" fill="url(#sharkGradient)" />
    
    <!-- 尾びれ -->
    <path d="M50,50 C30,25 15,45 30,60 C15,75 30,95 50,50" fill="url(#sharkGradient)" />
    
    <!-- 背びれ - サメの特徴的な三角形の背びれ -->
    <path d="M65,20 L75,0 L85,20" fill="url(#sharkGradient)" stroke="#2c4c6a" stroke-width="1" />
    
    <!-- 胸びれ -->
    <path d="M60,65 L80,75 L70,60" fill="url(#sharkGradient)" stroke="#2c4c6a" stroke-width="1" />
  </g>
  
  <!-- 水滴 -->
  <g filter="url(#dropletFilter)">
    <circle cx="130" cy="100" r="8" fill="white" opacity="0.7" />
    <circle cx="150" cy="120" r="5" fill="white" opacity="0.7" />
    <circle cx="40" cy="130" r="6" fill="white" opacity="0.7" />
  </g>
  
  <!-- タイトル - モダンフォントスタイル -->
  <text x="96" y="170" font-family="'Poppins', Arial, sans-serif" font-size="20" font-weight="bold" text-anchor="middle" fill="#e94560">金魚すくい</text>
</svg> 