<?xml version="1.0" encoding="UTF-8" standalone="no"?>
<svg width="130" height="80" xmlns="http://www.w3.org/2000/svg" xmlns:xlink="http://www.w3.org/1999/xlink">
  <defs>
    <!-- 金魚の体のグラデーション -->
    <linearGradient id="bodyGradient" x1="0%" y1="0%" x2="100%" y2="100%">
      <stop offset="0%" style="stop-color:#333333;stop-opacity:1" />
      <stop offset="50%" style="stop-color:#111111;stop-opacity:1" />
      <stop offset="100%" style="stop-color:#000000;stop-opacity:1" />
    </linearGradient>
    
    <!-- 尾びれのグラデーション -->
    <linearGradient id="tailGradient" x1="0%" y1="0%" x2="100%" y2="100%">
      <stop offset="0%" style="stop-color:#444444;stop-opacity:1" />
      <stop offset="100%" style="stop-color:#000000;stop-opacity:1" />
    </linearGradient>
    
    <!-- 出目のグラデーション -->
    <radialGradient id="bubbleGradient" cx="50%" cy="50%" r="50%" fx="30%" fy="30%">
      <stop offset="0%" style="stop-color:#555555;stop-opacity:1" />
      <stop offset="100%" style="stop-color:#222222;stop-opacity:1" />
    </radialGradient>
    
    <!-- 光沢効果 -->
    <filter id="glowFilter" x="-20%" y="-20%" width="140%" height="140%">
      <feGaussianBlur in="SourceAlpha" stdDeviation="1.5" result="blur" />
      <feOffset in="blur" dx="0" dy="0" result="offsetBlur" />
      <feSpecularLighting in="blur" surfaceScale="5" specularConstant="0.8" 
                          specularExponent="15" lighting-color="#ffffff" result="specOut">
        <fePointLight x="50" y="20" z="50" />
      </feSpecularLighting>
      <feComposite in="specOut" in2="SourceAlpha" operator="in" result="specOut" />
      <feComposite in="SourceGraphic" in2="specOut" operator="arithmetic" k1="0" k2="1" k3="1" k4="0" result="lit" />
    </filter>
    
    <!-- 水泡効果 -->
    <filter id="bubbleEffect" x="-30%" y="-30%" width="160%" height="160%">
      <feGaussianBlur in="SourceAlpha" stdDeviation="2" result="blur" />
      <feSpecularLighting in="blur" surfaceScale="5" specularConstant="1.2" 
                          specularExponent="20" lighting-color="#ffffff" result="specOut">
        <fePointLight x="30" y="30" z="50" />
      </feSpecularLighting>
      <feComposite in="specOut" in2="SourceAlpha" operator="in" result="specOut" />
      <feComposite in="SourceGraphic" in2="specOut" operator="arithmetic" k1="0" k2="1" k3="1" k4="0" />
    </filter>
    
    <!-- うろこパターン -->
    <pattern id="scalePattern" patternUnits="userSpaceOnUse" width="7" height="7" patternTransform="rotate(45)">
      <path d="M 0,0 C 3.5,0 7,3.5 7,7 C 7,3.5 3.5,0 0,0 z" fill="#333333" opacity="0.25" />
    </pattern>
  </defs>
  
  <!-- 金魚の体 -->
  <g transform="translate(40, 40)">
    <!-- 尾びれ - より複雑で自然な形状 -->
    <path d="M -25,0 C -40,-25 -60,-10 -45,0 C -60,10 -40,25 -25,0 Z" fill="url(#tailGradient)" opacity="0.9" />
    <path d="M -20,0 C -35,-20 -50,-5 -40,0 C -50,5 -35,20 -20,0 Z" fill="url(#tailGradient)" opacity="0.95" />
    
    <!-- 尾びれの質感表現 -->
    <path d="M -25,0 C -35,-15 -50,-5 -40,0 C -50,5 -35,15 -25,0 Z" fill="#333333" opacity="0.3" />
    <path d="M -30,-5 C -40,-15 -45,-5 -40,0 C -45,5 -40,15 -30,5 Z" fill="#555555" opacity="0.2" />
    
    <!-- 体 - より実際の金魚の体型に近い形状 -->
    <path d="M -20,0 Q -10,-25 15,-15 Q 35,-20 50,0 Q 35,20 15,15 Q -10,25 -20,0 Z" fill="url(#bodyGradient)" filter="url(#glowFilter)" />
    <path d="M -20,0 Q -10,-25 15,-15 Q 35,-20 50,0 Q 35,20 15,15 Q -10,25 -20,0 Z" fill="url(#scalePattern)" />
    
    <!-- 出目（黒い金魚の特徴）- より自然な形状 -->
    <g>
      <path d="M 15,-15 Q 20,-30 30,-15 Q 25,-5 15,-15 Z" fill="url(#bubbleGradient)" stroke="#000000" stroke-width="0.5" />
      <path d="M 15,15 Q 20,30 30,15 Q 25,5 15,15 Z" fill="url(#bubbleGradient)" stroke="#000000" stroke-width="0.5" />
    </g>
    
    <!-- 背びれ - より自然な形状 -->
    <path d="M 10,-15 C 15,-30 30,-25 20,-15 C 15,-5 5,-5 10,-15" fill="#222222" opacity="0.9" />
    <path d="M 10,-15 C 12,-25 20,-20 15,-10 C 12,-7 8,-7 10,-15" fill="#555555" opacity="0.3" />
    
    <!-- 腹びれ -->
    <path d="M 10,15 C 15,30 30,25 20,15 C 15,5 5,5 10,15" fill="#222222" opacity="0.9" />
    <path d="M 10,15 C 12,25 20,20 15,10 C 12,7 8,7 10,15" fill="#555555" opacity="0.3" />
    
    <!-- 胸びれ - 薄くて繊細な表現 -->
    <path d="M 30,-8 C 38,-15 45,-10 40,-5 C 35,0 32,-3 30,-8" fill="#333333" opacity="0.8" />
    <path d="M 30,8 C 38,15 45,10 40,5 C 35,0 32,3 30,8" fill="#333333" opacity="0.8" />
    
    <!-- 目 - よりリアルな表現 -->
    <circle cx="40" cy="-5" r="4" fill="white" />
    <circle cx="40" cy="-5" r="2.5" fill="black" />
    <circle cx="41" cy="-6" r="1" fill="white" />
    
    <circle cx="40" cy="5" r="4" fill="white" />
    <circle cx="40" cy="5" r="2.5" fill="black" />
    <circle cx="41" cy="4" r="1" fill="white" />
    
    <!-- 口 -->
    <path d="M 48,-1 C 52,0 52,1 48,2" fill="none" stroke="#333" stroke-width="0.7" />
    
    <!-- 体の光沢 -->
    <ellipse cx="20" cy="-8" rx="15" ry="5" fill="white" opacity="0.15" />
    <ellipse cx="15" cy="0" rx="10" ry="3" fill="white" opacity="0.1" />
  </g>
  
  <!-- 水泡 -->
  <circle cx="105" cy="20" r="2" fill="white" opacity="0.6" />
  <circle cx="110" cy="15" r="1.5" fill="white" opacity="0.6" />
  <circle cx="108" cy="25" r="1" fill="white" opacity="0.6" />
</svg> 