<?xml version="1.0" encoding="UTF-8" standalone="no"?>
<svg width="120" height="70" xmlns="http://www.w3.org/2000/svg" xmlns:xlink="http://www.w3.org/1999/xlink">
  <defs>
    <!-- 金色の金魚の体のグラデーション -->
    <linearGradient id="goldBodyGradient" x1="0%" y1="0%" x2="100%" y2="100%">
      <stop offset="0%" style="stop-color:#ffd700;stop-opacity:1" />
      <stop offset="40%" style="stop-color:#ffcc00;stop-opacity:1" />
      <stop offset="70%" style="stop-color:#ff9900;stop-opacity:1" />
      <stop offset="100%" style="stop-color:#e68a00;stop-opacity:1" />
    </linearGradient>
    
    <!-- 尾びれのグラデーション -->
    <linearGradient id="goldTailGradient" x1="0%" y1="0%" x2="100%" y2="100%">
      <stop offset="0%" style="stop-color:#ffe066;stop-opacity:0.9" />
      <stop offset="60%" style="stop-color:#ffcc00;stop-opacity:0.9" />
      <stop offset="100%" style="stop-color:#ff9900;stop-opacity:0.8" />
    </linearGradient>
    
    <!-- 光沢効果 -->
    <filter id="goldGlowFilter" x="-20%" y="-20%" width="140%" height="140%">
      <feGaussianBlur in="SourceAlpha" stdDeviation="1.5" result="blur" />
      <feOffset in="blur" dx="0" dy="0" result="offsetBlur" />
      <feSpecularLighting in="blur" surfaceScale="4" specularConstant="1" 
                          specularExponent="20" lighting-color="#ffffff" result="specOut">
        <fePointLight x="60" y="20" z="80" />
      </feSpecularLighting>
      <feComposite in="specOut" in2="SourceAlpha" operator="in" result="specOut" />
      <feComposite in="SourceGraphic" in2="specOut" operator="arithmetic" k1="0" k2="1" k3="1" k4="0" result="lit" />
    </filter>
    
    <!-- うろこパターン -->
    <pattern id="goldScalePattern" patternUnits="userSpaceOnUse" width="5" height="5" patternTransform="rotate(45)">
      <path d="M 0,0 C 2.5,0 5,2.5 5,5 C 5,2.5 2.5,0 0,0 z" fill="#ffaa00" opacity="0.15" />
    </pattern>
  </defs>
  
  <!-- 金魚の体 -->
  <g transform="translate(60, 35)">
    <!-- 尾びれ - より複雑で透明感のある形状 -->
    <path d="M -35,0 C -50,-25 -75,-10 -55,0 C -75,10 -50,25 -35,0 Z" fill="url(#goldTailGradient)" opacity="0.9" />
    <path d="M -25,0 C -40,-20 -60,-8 -45,0 C -60,8 -40,20 -25,0 Z" fill="url(#goldTailGradient)" opacity="0.95" />
    
    <!-- 尾びれの質感表現 -->
    <path d="M -30,0 C -45,-15 -55,-5 -45,0 C -55,5 -45,15 -30,0 Z" fill="#ffcc66" opacity="0.2" />
    <path d="M -40,-5 C -50,-12 -60,-5 -50,0 C -60,5 -50,12 -40,5 Z" fill="#ffffff" opacity="0.15" />
    
    <!-- 体 - 金魚の体型に近い形状 -->
    <path d="M -20,0 Q -10,-20 10,-12 Q 30,-15 45,0 Q 30,15 10,12 Q -10,20 -20,0 Z" fill="url(#goldBodyGradient)" filter="url(#goldGlowFilter)" />
    <path d="M -20,0 Q -10,-20 10,-12 Q 30,-15 45,0 Q 30,15 10,12 Q -10,20 -20,0 Z" fill="url(#goldScalePattern)" />
    
    <!-- 背びれ - より自然な表現 -->
    <path d="M 5,-12 C 15,-25 25,-20 15,-10 C 10,-5 0,-8 5,-12" fill="#ffcc00" opacity="0.8" />
    <path d="M 5,-12 C 10,-18 18,-15 12,-8 C 8,-6 2,-9 5,-12" fill="#ffffff" opacity="0.2" />
    
    <!-- 腹びれ -->
    <path d="M 5,12 C 15,25 25,20 15,10 C 10,5 0,8 5,12" fill="#ffcc00" opacity="0.8" />
    <path d="M 5,12 C 10,18 18,15 12,8 C 8,6 2,9 5,12" fill="#ffffff" opacity="0.2" />
    
    <!-- 胸びれ - 薄くて繊細な表現 -->
    <path d="M 20,-5 C 25,-12 32,-10 28,-3 C 25,-1 22,-2 20,-5" fill="#ffcc66" opacity="0.7" />
    <path d="M 20,5 C 25,12 32,10 28,3 C 25,1 22,2 20,5" fill="#ffcc66" opacity="0.7" />
    
    <!-- 目 - より立体的な表現 -->
    <circle cx="38" cy="-4" r="4" fill="black" />
    <circle cx="38" cy="-4" r="3" fill="#111" />
    <circle cx="39" cy="-5" r="1.2" fill="white" />
    <circle cx="36" cy="-3" r="0.5" fill="white" opacity="0.7" />
    
    <!-- 口 -->
    <path d="M 43,-1 C 45,0 45,1 43,2" fill="none" stroke="#663300" stroke-width="0.8" />
    
    <!-- 体の光沢 -->
    <ellipse cx="10" cy="-5" rx="20" ry="6" fill="white" opacity="0.15" />
    <ellipse cx="5" cy="0" rx="10" ry="4" fill="white" opacity="0.1" />
    <ellipse cx="30" cy="-8" rx="8" ry="3" fill="white" opacity="0.2" />
    
    <!-- 金色の点描効果 -->
    <g opacity="0.3">
      <circle cx="0" cy="-8" r="1" fill="#ffffcc" />
      <circle cx="10" cy="-10" r="0.8" fill="#ffffcc" />
      <circle cx="20" cy="-7" r="1.2" fill="#ffffcc" />
      <circle cx="5" cy="8" r="0.9" fill="#ffffcc" />
      <circle cx="15" cy="6" r="1.1" fill="#ffffcc" />
      <circle cx="25" cy="3" r="0.7" fill="#ffffcc" />
    </g>
  </g>
</svg> 