<?xml version="1.0" encoding="UTF-8" standalone="no"?>
<svg width="120" height="70" xmlns="http://www.w3.org/2000/svg" xmlns:xlink="http://www.w3.org/1999/xlink">
  <defs>
    <!-- 金魚の体のグラデーション - よりシンプルで美しい赤色に -->
    <linearGradient id="bodyGradient" x1="0%" y1="0%" x2="100%" y2="100%">
      <stop offset="0%" style="stop-color:#ff7070;stop-opacity:1" />
      <stop offset="50%" style="stop-color:#ff3a3a;stop-opacity:1" />
      <stop offset="100%" style="stop-color:#cc0000;stop-opacity:1" />
    </linearGradient>
    
    <!-- 尾びれのグラデーション - 透明感のある赤に -->
    <linearGradient id="tailGradient" x1="0%" y1="0%" x2="100%" y2="100%">
      <stop offset="0%" style="stop-color:#ff9090;stop-opacity:0.9" />
      <stop offset="70%" style="stop-color:#ff5050;stop-opacity:0.9" />
      <stop offset="100%" style="stop-color:#ff0000;stop-opacity:0.8" />
    </linearGradient>
    
    <!-- 光沢効果 - シンプルで美しい光沢 -->
    <filter id="glowFilter" x="-20%" y="-20%" width="140%" height="140%">
      <feGaussianBlur in="SourceAlpha" stdDeviation="1.5" result="blur" />
      <feOffset in="blur" dx="0" dy="0" result="offsetBlur" />
      <feSpecularLighting in="blur" surfaceScale="3" specularConstant="0.8" 
                          specularExponent="20" lighting-color="#ffffff" result="specOut">
        <fePointLight x="60" y="20" z="80" />
      </feSpecularLighting>
      <feComposite in="specOut" in2="SourceAlpha" operator="in" result="specOut" />
      <feComposite in="SourceGraphic" in2="specOut" operator="arithmetic" k1="0" k2="1" k3="1" k4="0" result="lit" />
    </filter>
    
    <!-- うろこパターン - シンプルな表現に -->
    <pattern id="scalePattern" patternUnits="userSpaceOnUse" width="5" height="5" patternTransform="rotate(45)">
      <path d="M 0,0 C 2.5,0 5,2.5 5,5 C 5,2.5 2.5,0 0,0 z" fill="#ff2222" opacity="0.1" />
    </pattern>
  </defs>
  
  <!-- 金魚の体 -->
  <g transform="translate(60, 35) scale(1, -1)">
    <!-- 尾びれ - 流れるような形状 -->
    <path d="M -35,0 C -50,-25 -75,-10 -55,0 C -75,10 -50,25 -35,0 Z" fill="url(#tailGradient)" opacity="0.9" />
    <path d="M -25,0 C -40,-20 -60,-8 -45,0 C -60,8 -40,20 -25,0 Z" fill="url(#tailGradient)" opacity="0.95" />
    
    <!-- 尾びれの質感表現 - 透明感と繊細さを強調 -->
    <path d="M -30,0 C -45,-15 -55,-5 -45,0 C -55,5 -45,15 -30,0 Z" fill="#ff5555" opacity="0.2" />
    <path d="M -40,-5 C -50,-12 -60,-5 -50,0 C -60,5 -50,12 -40,5 Z" fill="#ffffff" opacity="0.15" />
    
    <!-- 体 - シンプルでなめらかな体型 -->
    <path d="M -20,0 Q -10,-20 10,-12 Q 30,-15 45,0 Q 30,15 10,12 Q -10,20 -20,0 Z" fill="url(#bodyGradient)" filter="url(#glowFilter)" />
    <path d="M -20,0 Q -10,-20 10,-12 Q 30,-15 45,0 Q 30,15 10,12 Q -10,20 -20,0 Z" fill="url(#scalePattern)" />
    
    <!-- 背びれ - 尾びれ側に広がる -->
    <path d="M 5,-12 C -5,-25 -15,-20 -5,-10 C 0,-5 10,-8 5,-12" fill="#ff3333" opacity="0.8" />
    <path d="M 5,-12 C 0,-18 -8,-15 -2,-8 C 2,-6 8,-9 5,-12" fill="#ffffff" opacity="0.2" />
    
    <!-- 腹びれ - 尾びれ側に広がる -->
    <path d="M 5,12 C -5,25 -15,20 -5,10 C 0,5 10,8 5,12" fill="#ff3333" opacity="0.8" />
    <path d="M 5,12 C 0,18 -8,15 -2,8 C 2,6 8,9 5,12" fill="#ffffff" opacity="0.2" />
  </g>
</svg> 