<?xml version="1.0" encoding="UTF-8" standalone="no"?>
<svg width="130" height="80" xmlns="http://www.w3.org/2000/svg" xmlns:xlink="http://www.w3.org/1999/xlink">
  <defs>
    <!-- 金魚の体のグラデーション -->
    <linearGradient id="bodyGradient" x1="0%" y1="0%" x2="100%" y2="100%">
      <stop offset="0%" style="stop-color:#6699ff;stop-opacity:1" />
      <stop offset="50%" style="stop-color:#3366cc;stop-opacity:1" />
      <stop offset="100%" style="stop-color:#0033cc;stop-opacity:1" />
    </linearGradient>
    
    <!-- 尾びれのグラデーション -->
    <linearGradient id="tailGradient" x1="0%" y1="0%" x2="100%" y2="100%">
      <stop offset="0%" style="stop-color:#5588ff;stop-opacity:1" />
      <stop offset="100%" style="stop-color:#0044cc;stop-opacity:1" />
    </linearGradient>
    
    <!-- 光沢効果 -->
    <filter id="glowFilter" x="-20%" y="-20%" width="140%" height="140%">
      <feGaussianBlur in="SourceAlpha" stdDeviation="1.5" result="blur" />
      <feOffset in="blur" dx="0" dy="0" result="offsetBlur" />
      <feSpecularLighting in="blur" surfaceScale="5" specularConstant="0.8" 
                          specularExponent="15" lighting-color="#ffffff" result="specOut">
        <fePointLight x="50" y="20" z="50" />
      </feSpecularLighting>
      <feComposite in="specOut" in2="SourceAlpha" operator="in" result="specOut" />
      <feComposite in="SourceGraphic" in2="specOut" operator="arithmetic" k1="0" k2="1" k3="1" k4="0" result="lit" />
    </filter>
    
    <!-- うろこパターン -->
    <pattern id="scalePattern" patternUnits="userSpaceOnUse" width="7" height="7" patternTransform="rotate(45)">
      <path d="M 0,0 C 3.5,0 7,3.5 7,7 C 7,3.5 3.5,0 0,0 z" fill="#3377ee" opacity="0.2" />
    </pattern>
  </defs>
  
  <!-- 魚の体 -->
  <g transform="translate(40, 40)">
    <!-- 尾びれ - より複雑で自然な形状 -->
    <path d="M -25,0 C -40,-25 -60,-10 -45,0 C -60,10 -40,25 -25,0 Z" fill="url(#tailGradient)" opacity="0.9" />
    <path d="M -20,0 C -35,-20 -50,-5 -40,0 C -50,5 -35,20 -20,0 Z" fill="url(#tailGradient)" opacity="0.95" />
    
    <!-- 尾びれの質感表現 -->
    <path d="M -25,0 C -35,-15 -50,-5 -40,0 C -50,5 -35,15 -25,0 Z" fill="#4477dd" opacity="0.3" />
    <path d="M -30,-5 C -40,-15 -45,-5 -40,0 C -45,5 -40,15 -30,5 Z" fill="#5588ee" opacity="0.2" />
    
    <!-- 体 - より実際の魚の体型に近い形状 -->
    <path d="M -20,0 Q -5,-20 15,-10 Q 35,-15 50,0 Q 35,15 15,10 Q -5,20 -20,0 Z" fill="url(#bodyGradient)" filter="url(#glowFilter)" />
    <path d="M -20,0 Q -5,-20 15,-10 Q 35,-15 50,0 Q 35,15 15,10 Q -5,20 -20,0 Z" fill="url(#scalePattern)" />
    
    <!-- 背びれ - より自然な形状 -->
    <path d="M 10,-10 C 15,-25 30,-20 20,-10 C 15,-5 5,-5 10,-10" fill="#2255cc" opacity="0.9" />
    <path d="M 10,-10 C 12,-20 20,-15 15,-8 C 12,-6 8,-6 10,-10" fill="#6699ff" opacity="0.3" />
    
    <!-- 腹びれ -->
    <path d="M 10,10 C 15,25 30,20 20,10 C 15,5 5,5 10,10" fill="#2255cc" opacity="0.9" />
    <path d="M 10,10 C 12,20 20,15 15,8 C 12,6 8,6 10,10" fill="#6699ff" opacity="0.3" />
    
    <!-- 胸びれ - 薄くて繊細な表現 -->
    <path d="M 30,-5 C 38,-12 45,-8 40,-3 C 35,0 32,-2 30,-5" fill="#3366dd" opacity="0.8" />
    <path d="M 30,5 C 38,12 45,8 40,3 C 35,0 32,2 30,5" fill="#3366dd" opacity="0.8" />
    
    <!-- 目 - よりリアルな表現 -->
    <circle cx="40" cy="-3" r="3.5" fill="white" />
    <circle cx="40" cy="-3" r="2.2" fill="black" />
    <circle cx="41" cy="-4" r="0.8" fill="white" />
    
    <!-- 口 -->
    <path d="M 48,-1 C 52,0 52,1 48,2" fill="none" stroke="#002266" stroke-width="0.7" />
    
    <!-- 体の光沢 -->
    <ellipse cx="15" cy="-5" rx="20" ry="6" fill="white" opacity="0.15" />
    <ellipse cx="0" cy="0" rx="12" ry="3" fill="white" opacity="0.1" />
    
    <!-- 特徴的な斑点 -->
    <circle cx="5" cy="-5" r="3" fill="#99ccff" opacity="0.5" />
    <circle cx="15" cy="6" r="2" fill="#99ccff" opacity="0.5" />
    <circle cx="25" cy="-7" r="2.5" fill="#99ccff" opacity="0.5" />
  </g>
  
  <!-- 水泡 -->
  <circle cx="105" cy="20" r="2" fill="white" opacity="0.6" />
  <circle cx="110" cy="15" r="1.5" fill="white" opacity="0.6" />
  <circle cx="108" cy="25" r="1" fill="white" opacity="0.6" />
</svg> 