<?xml version="1.0" encoding="UTF-8" standalone="no"?>
<svg width="120" height="70" xmlns="http://www.w3.org/2000/svg" xmlns:xlink="http://www.w3.org/1999/xlink">
  <defs>
    <!-- 青い魚の体のグラデーション -->
    <linearGradient id="blueBodyGradient" x1="0%" y1="0%" x2="100%" y2="100%">
      <stop offset="0%" style="stop-color:#4d94ff;stop-opacity:1" />
      <stop offset="40%" style="stop-color:#0066ff;stop-opacity:1" />
      <stop offset="70%" style="stop-color:#0047b3;stop-opacity:1" />
      <stop offset="100%" style="stop-color:#003380;stop-opacity:1" />
    </linearGradient>
    
    <!-- 尾びれのグラデーション -->
    <linearGradient id="blueTailGradient" x1="0%" y1="0%" x2="100%" y2="100%">
      <stop offset="0%" style="stop-color:#80b3ff;stop-opacity:0.9" />
      <stop offset="60%" style="stop-color:#4d94ff;stop-opacity:0.9" />
      <stop offset="100%" style="stop-color:#0066ff;stop-opacity:0.8" />
    </linearGradient>
    
    <!-- 光沢効果 -->
    <filter id="blueGlowFilter" x="-20%" y="-20%" width="140%" height="140%">
      <feGaussianBlur in="SourceAlpha" stdDeviation="1.5" result="blur" />
      <feOffset in="blur" dx="0" dy="0" result="offsetBlur" />
      <feSpecularLighting in="blur" surfaceScale="4" specularConstant="1" 
                          specularExponent="20" lighting-color="#ffffff" result="specOut">
        <fePointLight x="60" y="20" z="80" />
      </feSpecularLighting>
      <feComposite in="specOut" in2="SourceAlpha" operator="in" result="specOut" />
      <feComposite in="SourceGraphic" in2="specOut" operator="arithmetic" k1="0" k2="1" k3="1" k4="0" result="lit" />
    </filter>
    
    <!-- うろこパターン -->
    <pattern id="blueScalePattern" patternUnits="userSpaceOnUse" width="5" height="5" patternTransform="rotate(45)">
      <path d="M 0,0 C 2.5,0 5,2.5 5,5 C 5,2.5 2.5,0 0,0 z" fill="#0052cc" opacity="0.15" />
    </pattern>
  </defs>
  
  <!-- 青い魚の体 - より細長く、スピード感のあるデザイン -->
  <g transform="translate(60, 35)">
    <!-- 尾びれ - よりスピード感のある形状 -->
    <path d="M -30,0 C -45,-20 -65,-5 -45,0 C -65,5 -45,20 -30,0 Z" fill="url(#blueTailGradient)" opacity="0.9" />
    <path d="M -20,0 C -35,-15 -50,-3 -40,0 C -50,3 -35,15 -20,0 Z" fill="url(#blueTailGradient)" opacity="0.95" />
    
    <!-- 尾びれの質感表現 -->
    <path d="M -25,0 C -40,-10 -50,-3 -40,0 C -50,3 -40,10 -25,0 Z" fill="#4d94ff" opacity="0.2" />
    <path d="M -35,-5 C -45,-10 -50,-5 -45,0 C -50,5 -45,10 -35,5 Z" fill="#ffffff" opacity="0.15" />
    
    <!-- 体 - より流線型に -->
    <path d="M -15,0 Q -7,-15 10,-8 Q 30,-10 48,0 Q 30,10 10,8 Q -7,15 -15,0 Z" fill="url(#blueBodyGradient)" filter="url(#blueGlowFilter)" />
    <path d="M -15,0 Q -7,-15 10,-8 Q 30,-10 48,0 Q 30,10 10,8 Q -7,15 -15,0 Z" fill="url(#blueScalePattern)" />
    
    <!-- 背びれ - より流線型に -->
    <path d="M 10,-8 C 15,-18 25,-15 20,-8 C 15,-3 5,-3 10,-8" fill="#0066ff" opacity="0.8" />
    <path d="M 10,-8 C 13,-14 18,-12 15,-6 C 12,-4 8,-4 10,-8" fill="#ffffff" opacity="0.2" />
    
    <!-- 腹びれ -->
    <path d="M 10,8 C 15,18 25,15 20,8 C 15,3 5,3 10,8" fill="#0066ff" opacity="0.8" />
    <path d="M 10,8 C 13,14 18,12 15,6 C 12,4 8,4 10,8" fill="#ffffff" opacity="0.2" />
    
    <!-- 胸びれ - より細く、スピード感のある表現 -->
    <path d="M 28,-4 C 32,-9 36,-7 34,-2 C 32,0 30,-1 28,-4" fill="#4d94ff" opacity="0.7" />
    <path d="M 28,4 C 32,9 36,7 34,2 C 32,0 30,1 28,4" fill="#4d94ff" opacity="0.7" />
    
    <!-- 目 - よりシャープな表現 -->
    <circle cx="42" cy="-3" r="3" fill="black" />
    <circle cx="42" cy="-3" r="2" fill="#111" />
    <circle cx="43" cy="-4" r="0.8" fill="white" />
    
    <!-- 口 - シャープな形 -->
    <path d="M 46,-1 C 48,0 48,1 46,2" fill="none" stroke="#004080" stroke-width="0.6" />
    
    <!-- 体の光沢と模様 -->
    <ellipse cx="20" cy="-4" rx="18" ry="5" fill="white" opacity="0.15" />
    <ellipse cx="10" cy="0" rx="8" ry="3" fill="white" opacity="0.1" />
    <path d="M 25,0 C 30,-4 35,-3 40,0 C 35,3 30,4 25,0" fill="#003380" opacity="0.2" />
    <path d="M 15,0 C 20,-3 25,-2 30,0 C 25,2 20,3 15,0" fill="#003380" opacity="0.2" />
  </g>
</svg> 