<?xml version="1.0" encoding="UTF-8" standalone="no"?>
<svg width="150" height="95" xmlns="http://www.w3.org/2000/svg" xmlns:xlink="http://www.w3.org/1999/xlink">
  <defs>
    <!-- 金魚の体のグラデーション -->
    <linearGradient id="bodyGradient" x1="0%" y1="0%" x2="100%" y2="100%">
      <stop offset="0%" style="stop-color:#60f0c0;stop-opacity:1" />
      <stop offset="50%" style="stop-color:#30e0a0;stop-opacity:1" />
      <stop offset="100%" style="stop-color:#10c080;stop-opacity:1" />
    </linearGradient>
    
    <!-- 尾びれのグラデーション -->
    <linearGradient id="tailGradient" x1="0%" y1="0%" x2="100%" y2="100%">
      <stop offset="0%" style="stop-color:#50e0b0;stop-opacity:1" />
      <stop offset="100%" style="stop-color:#10c080;stop-opacity:1" />
    </linearGradient>
    
    <!-- キラキラエフェクト1 -->
    <radialGradient id="sparkleGradient1" cx="50%" cy="50%" r="50%" fx="25%" fy="25%">
      <stop offset="0%" style="stop-color:#ffffff;stop-opacity:0.9" />
      <stop offset="100%" style="stop-color:#ffffff;stop-opacity:0" />
    </radialGradient>
    
    <!-- キラキラエフェクト2 -->
    <radialGradient id="sparkleGradient2" cx="50%" cy="50%" r="50%" fx="25%" fy="25%">
      <stop offset="0%" style="stop-color:#c0ffee;stop-opacity:0.9" />
      <stop offset="100%" style="stop-color:#c0ffee;stop-opacity:0" />
    </radialGradient>
    
    <!-- 光沢効果 -->
    <filter id="glowFilter" x="-20%" y="-20%" width="140%" height="140%">
      <feGaussianBlur in="SourceAlpha" stdDeviation="2" result="blur" />
      <feOffset in="blur" dx="0" dy="0" result="offsetBlur" />
      <feSpecularLighting in="blur" surfaceScale="5" specularConstant="1.2" 
                          specularExponent="15" lighting-color="#ffffff" result="specOut">
        <fePointLight x="65" y="35" z="80" />
      </feSpecularLighting>
      <feComposite in="specOut" in2="SourceAlpha" operator="in" result="specOut" />
      <feComposite in="SourceGraphic" in2="specOut" operator="arithmetic" k1="0" k2="1" k3="1" k4="0" result="lit" />
    </filter>
    
    <!-- マジカルエフェクト -->
    <filter id="magicalEffect" x="-20%" y="-20%" width="140%" height="140%">
      <feGaussianBlur in="SourceAlpha" stdDeviation="3" result="blur" />
      <feColorMatrix in="blur" type="matrix" values="0 0 0 0 0.2 0 0 0 0 1 0 0 0 0 0.8 0 0 0 0.7 0" result="coloredBlur" />
      <feBlend in="SourceGraphic" in2="coloredBlur" mode="normal" />
    </filter>
    
    <!-- うろこパターン -->
    <pattern id="scalePattern" patternUnits="userSpaceOnUse" width="15" height="15" patternTransform="rotate(45)">
      <path d="M 0,0 C 7.5,0 15,7.5 15,15 C 15,7.5 7.5,0 0,0 z" fill="#30d0a0" opacity="0.25" />
    </pattern>
  </defs>
  
  <!-- 金魚の尾びれ -->
  <g transform="translate(0, 47.5)">
    <path d="M 60,0 C 45,-35 0,-25 20,0 C 0,25 45,35 60,0 Z" fill="url(#tailGradient)" filter="url(#magicalEffect)" />
    <path d="M 55,0 C 35,-30 -15,-15 15,0 C -15,15 35,30 55,0 Z" fill="url(#tailGradient)" filter="url(#magicalEffect)" />
    <path d="M 50,0 C 20,-25 -20,-10 10,0 C -20,10 20,25 50,0 Z" fill="url(#tailGradient)" filter="url(#magicalEffect)" />
  </g>
  
  <!-- 金魚の体 -->
  <ellipse cx="85" cy="47.5" rx="55" ry="40" fill="url(#bodyGradient)" filter="url(#glowFilter)" />
  <ellipse cx="85" cy="47.5" rx="55" ry="40" fill="url(#scalePattern)" />
  
  <!-- 模様 -->
  <path d="M 70,17.5 C 90,7.5 110,17.5 130,7.5" fill="none" stroke="#20b090" stroke-width="3" stroke-linecap="round" />
  <path d="M 70,77.5 C 90,87.5 110,77.5 130,87.5" fill="none" stroke="#20b090" stroke-width="3" stroke-linecap="round" />
  <path d="M 60,47.5 C 80,37.5 100,57.5 120,47.5" fill="none" stroke="#20b090" stroke-width="3" stroke-linecap="round" />
  
  <!-- 胸びれ -->
  <path d="M 75,75 C 80,85 95,90 100,80 C 95,70 85,65 75,75" fill="#40e0b0" opacity="0.9" filter="url(#magicalEffect)" />
  <path d="M 75,20 C 80,10 95,5 100,15 C 95,25 85,30 75,20" fill="#40e0b0" opacity="0.9" filter="url(#magicalEffect)" />
  
  <!-- 背びれ -->
  <path d="M 90,7.5 C 100,0 115,2.5 110,15 C 105,27.5 80,15 90,7.5" fill="#40e0b0" filter="url(#magicalEffect)" />
  
  <!-- 目 -->
  <circle cx="125" cy="40" r="8" fill="white" />
  <circle cx="125" cy="40" r="5" fill="#000066" />
  <circle cx="123" cy="38" r="2" fill="white" />
  
  <!-- キラキラ効果 -->
  <g>
    <circle cx="65" cy="30" r="3" fill="url(#sparkleGradient1)" />
    <circle cx="80" cy="20" r="4" fill="url(#sparkleGradient2)" />
    <circle cx="95" cy="25" r="2.5" fill="url(#sparkleGradient1)" />
    <circle cx="75" cy="55" r="3.5" fill="url(#sparkleGradient2)" />
    <circle cx="90" cy="70" r="2" fill="url(#sparkleGradient1)" />
    <circle cx="110" cy="60" r="3" fill="url(#sparkleGradient2)" />
  </g>
  
  <!-- 光沢 -->
  <ellipse cx="75" cy="35" rx="25" ry="15" fill="white" opacity="0.2" />
  
  <!-- 気泡 -->
  <circle cx="140" cy="25" r="3.5" fill="white" opacity="0.7" />
  <circle cx="145" cy="35" r="2.5" fill="white" opacity="0.7" />
  <circle cx="142" cy="20" r="2" fill="white" opacity="0.7" />
  <circle cx="135" cy="15" r="1.5" fill="white" opacity="0.7" />
</svg> 