<?xml version="1.0" encoding="UTF-8" standalone="no"?>
<svg width="120" height="70" xmlns="http://www.w3.org/2000/svg" xmlns:xlink="http://www.w3.org/1999/xlink">
  <defs>
    <!-- 黒い魚の体のグラデーション -->
    <linearGradient id="blackBodyGradient" x1="0%" y1="0%" x2="100%" y2="100%">
      <stop offset="0%" style="stop-color:#333333;stop-opacity:1" />
      <stop offset="40%" style="stop-color:#1a1a1a;stop-opacity:1" />
      <stop offset="70%" style="stop-color:#0d0d0d;stop-opacity:1" />
      <stop offset="100%" style="stop-color:#000000;stop-opacity:1" />
    </linearGradient>
    
    <!-- 尾びれのグラデーション -->
    <linearGradient id="blackTailGradient" x1="0%" y1="0%" x2="100%" y2="100%">
      <stop offset="0%" style="stop-color:#4d4d4d;stop-opacity:0.9" />
      <stop offset="60%" style="stop-color:#333333;stop-opacity:0.9" />
      <stop offset="100%" style="stop-color:#1a1a1a;stop-opacity:0.8" />
    </linearGradient>
    
    <!-- 光沢効果 -->
    <filter id="blackGlowFilter" x="-20%" y="-20%" width="140%" height="140%">
      <feGaussianBlur in="SourceAlpha" stdDeviation="1.5" result="blur" />
      <feOffset in="blur" dx="0" dy="0" result="offsetBlur" />
      <feSpecularLighting in="blur" surfaceScale="4" specularConstant="1" 
                          specularExponent="20" lighting-color="#ffffff" result="specOut">
        <fePointLight x="60" y="20" z="80" />
      </feSpecularLighting>
      <feComposite in="specOut" in2="SourceAlpha" operator="in" result="specOut" />
      <feComposite in="SourceGraphic" in2="specOut" operator="arithmetic" k1="0" k2="1" k3="1" k4="0" result="lit" />
    </filter>
    
    <!-- うろこパターン -->
    <pattern id="blackScalePattern" patternUnits="userSpaceOnUse" width="5" height="5" patternTransform="rotate(45)">
      <path d="M 0,0 C 2.5,0 5,2.5 5,5 C 5,2.5 2.5,0 0,0 z" fill="#222222" opacity="0.2" />
    </pattern>
  </defs>
  
  <!-- 黒い魚の体 - より威厳があり力強いデザイン -->
  <g transform="translate(60, 35)">
    <!-- 尾びれ - より豪華で強力な形状 -->
    <path d="M -35,0 C -55,-30 -80,-10 -60,0 C -80,10 -55,30 -35,0 Z" fill="url(#blackTailGradient)" opacity="0.9" />
    <path d="M -25,0 C -45,-20 -65,-8 -50,0 C -65,8 -45,20 -25,0 Z" fill="url(#blackTailGradient)" opacity="0.95" />
    
    <!-- 尾びれの質感表現 -->
    <path d="M -30,0 C -45,-15 -60,-5 -50,0 C -60,5 -45,15 -30,0 Z" fill="#444444" opacity="0.2" />
    <path d="M -40,-5 C -50,-12 -60,-5 -55,0 C -60,5 -50,12 -40,5 Z" fill="#666666" opacity="0.15" />
    
    <!-- 体 - より力強い体型 -->
    <path d="M -20,0 Q -10,-22 15,-15 Q 35,-18 48,0 Q 35,18 15,15 Q -10,22 -20,0 Z" fill="url(#blackBodyGradient)" filter="url(#blackGlowFilter)" />
    <path d="M -20,0 Q -10,-22 15,-15 Q 35,-18 48,0 Q 35,18 15,15 Q -10,22 -20,0 Z" fill="url(#blackScalePattern)" />
    
    <!-- 背びれ - より迫力のある表現 -->
    <path d="M 5,-15 C 15,-30 30,-25 20,-15 C 15,-8 0,-10 5,-15" fill="#1a1a1a" opacity="0.8" />
    <path d="M 5,-15 C 10,-25 20,-20 15,-12 C 10,-8 2,-12 5,-15" fill="#444444" opacity="0.3" />
    
    <!-- 腹びれ -->
    <path d="M 5,15 C 15,30 30,25 20,15 C 15,8 0,10 5,15" fill="#1a1a1a" opacity="0.8" />
    <path d="M 5,15 C 10,25 20,20 15,12 C 10,8 2,12 5,15" fill="#444444" opacity="0.3" />
    
    <!-- 胸びれ - より力強い表現 -->
    <path d="M 25,-8 C 32,-15 38,-12 35,-5 C 32,-2 28,-4 25,-8" fill="#333333" opacity="0.7" />
    <path d="M 25,8 C 32,15 38,12 35,5 C 32,2 28,4 25,8" fill="#333333" opacity="0.7" />
    
    <!-- 特徴的な出目 - より立体的な表現 -->
    <circle cx="40" cy="-5" r="5" fill="white" />
    <circle cx="40" cy="-5" r="3.5" fill="#111111" />
    <circle cx="41" cy="-6" r="1.5" fill="white" />
    
    <circle cx="40" cy="5" r="5" fill="white" />
    <circle cx="40" cy="5" r="3.5" fill="#111111" />
    <circle cx="41" cy="4" r="1.5" fill="white" />
    
    <!-- 口 - 力強い表現 -->
    <path d="M 46,-1 C 49,0 49,1 46,2" fill="none" stroke="#222222" stroke-width="1" />
    
    <!-- 体の光沢 -->
    <ellipse cx="15" cy="-8" rx="20" ry="6" fill="white" opacity="0.1" />
    <ellipse cx="10" cy="0" rx="10" ry="4" fill="white" opacity="0.07" />
    <ellipse cx="30" cy="-10" rx="8" ry="3" fill="white" opacity="0.1" />
    
    <!-- 特徴的な斑点と模様 -->
    <g opacity="0.5">
      <path d="M 0,-8 L 5,-10 L 10,-8 L 5,-6 Z" fill="#444444" />
      <path d="M 15,-12 L 20,-14 L 25,-12 L 20,-10 Z" fill="#444444" />
      <path d="M 0,8 L 5,10 L 10,8 L 5,6 Z" fill="#444444" />
      <path d="M 15,12 L 20,14 L 25,12 L 20,10 Z" fill="#444444" />
    </g>
  </g>
</svg> 