<?xml version="1.0" encoding="UTF-8" standalone="no"?>
<svg width="120" height="70" xmlns="http://www.w3.org/2000/svg" xmlns:xlink="http://www.w3.org/1999/xlink">
  <defs>
    <!-- 金色の金魚の体のグラデーション - シンプルで美しい金色 -->
    <linearGradient id="bodyGradient" x1="0%" y1="0%" x2="100%" y2="100%">
      <stop offset="0%" style="stop-color:#ffdb99;stop-opacity:1" />
      <stop offset="50%" style="stop-color:#ffc44d;stop-opacity:1" />
      <stop offset="100%" style="stop-color:#e6a800;stop-opacity:1" />
    </linearGradient>
    
    <!-- 尾びれのグラデーション - 透明感のある金色 -->
    <linearGradient id="tailGradient" x1="0%" y1="0%" x2="100%" y2="100%">
      <stop offset="0%" style="stop-color:#ffe6b3;stop-opacity:0.9" />
      <stop offset="70%" style="stop-color:#ffcc66;stop-opacity:0.9" />
      <stop offset="100%" style="stop-color:#ffaa00;stop-opacity:0.8" />
    </linearGradient>
    
    <!-- 金色の光沢効果 - シンプルで美しい -->
    <filter id="glowFilter" x="-20%" y="-20%" width="140%" height="140%">
      <feGaussianBlur in="SourceAlpha" stdDeviation="1.5" result="blur" />
      <feOffset in="blur" dx="0" dy="0" result="offsetBlur" />
      <feSpecularLighting in="blur" surfaceScale="3" specularConstant="0.8" 
                          specularExponent="20" lighting-color="#ffffff" result="specOut">
        <fePointLight x="60" y="20" z="80" />
      </feSpecularLighting>
      <feComposite in="specOut" in2="SourceAlpha" operator="in" result="specOut" />
      <feComposite in="SourceGraphic" in2="specOut" operator="arithmetic" k1="0" k2="1" k3="1" k4="0" result="lit" />
    </filter>
    
    <!-- 金色のうろこパターン - シンプルな表現 -->
    <pattern id="scalePattern" patternUnits="userSpaceOnUse" width="5" height="5" patternTransform="rotate(45)">
      <path d="M 0,0 C 2.5,0 5,2.5 5,5 C 5,2.5 2.5,0 0,0 z" fill="#ffcc00" opacity="0.1" />
    </pattern>
  </defs>
  
  <!-- 金魚の体 -->
  <g transform="translate(60, 35)">
    <!-- 尾びれ - 流れるような形状 -->
    <path d="M -35,0 C -55,-25 -75,-10 -55,0 C -75,10 -55,25 -35,0 Z" fill="url(#tailGradient)" opacity="0.9" />
    <path d="M -25,0 C -45,-20 -60,-8 -45,0 C -60,8 -45,20 -25,0 Z" fill="url(#tailGradient)" opacity="0.95" />
    
    <!-- 尾びれの質感表現 - 透明感と繊細さ -->
    <path d="M -30,0 C -45,-15 -55,-5 -45,0 C -55,5 -45,15 -30,0 Z" fill="#ffcc66" opacity="0.2" />
    <path d="M -40,-5 C -50,-12 -60,-5 -50,0 C -60,5 -50,12 -40,5 Z" fill="#ffffff" opacity="0.2" />
    
    <!-- 体 - シンプルで美しい体型 -->
    <path d="M -20,0 Q -10,-18 10,-10 Q 30,-13 40,0 Q 30,13 10,10 Q -10,18 -20,0 Z" fill="url(#bodyGradient)" filter="url(#glowFilter)" />
    <path d="M -20,0 Q -10,-18 10,-10 Q 30,-13 40,0 Q 30,13 10,10 Q -10,18 -20,0 Z" fill="url(#scalePattern)" />
    
    <!-- 背びれ - シンプルな表現 -->
    <path d="M 0,-10 C 10,-20 18,-15 10,-8 C 5,-4 -2,-7 0,-10" fill="#ffcc44" opacity="0.8" />
    <path d="M 0,-10 C 5,-15 12,-12 8,-6 C 4,-3 -1,-6 0,-10" fill="#ffffff" opacity="0.2" />
    
    <!-- 腹びれ -->
    <path d="M 0,10 C 10,20 18,15 10,8 C 5,4 -2,7 0,10" fill="#ffcc44" opacity="0.8" />
    <path d="M 0,10 C 5,15 12,12 8,6 C 4,3 -1,6 0,10" fill="#ffffff" opacity="0.2" />
    
    <!-- 胸びれ - シンプルな表現 -->
    <path d="M 20,-4 C 25,-10 30,-8 26,-2 C 24,0 21,-1 20,-4" fill="#ffcc66" opacity="0.8" />
    <path d="M 20,4 C 25,10 30,8 26,2 C 24,0 21,1 20,4" fill="#ffcc66" opacity="0.8" />
    
    <!-- 体の光沢 - シンプルで美しい光の反射 -->
    <ellipse cx="10" cy="-4" rx="15" ry="5" fill="white" opacity="0.2" />
    <ellipse cx="5" cy="0" rx="8" ry="3" fill="white" opacity="0.15" />
    <ellipse cx="25" cy="-2" rx="8" ry="3" fill="white" opacity="0.2" />
  </g>
  
  <!-- 水泡 -->
  <circle cx="90" cy="25" r="1.5" fill="white" opacity="0.7" />
  <circle cx="95" cy="20" r="1" fill="white" opacity="0.7" />
  <circle cx="92" cy="30" r="1" fill="white" opacity="0.7" />
</svg> 