<?xml version="1.0" encoding="UTF-8" standalone="no"?>
<svg width="120" height="70" xmlns="http://www.w3.org/2000/svg" xmlns:xlink="http://www.w3.org/1999/xlink">
  <defs>
    <!-- 黒い金魚の体のグラデーション - シンプルで美しい黒色 -->
    <linearGradient id="bodyGradient" x1="0%" y1="0%" x2="100%" y2="100%">
      <stop offset="0%" style="stop-color:#444444;stop-opacity:1" />
      <stop offset="50%" style="stop-color:#222222;stop-opacity:1" />
      <stop offset="100%" style="stop-color:#000000;stop-opacity:1" />
    </linearGradient>
    
    <!-- 尾びれのグラデーション - 透明感のある黒 -->
    <linearGradient id="tailGradient" x1="0%" y1="0%" x2="100%" y2="100%">
      <stop offset="0%" style="stop-color:#555555;stop-opacity:0.9" />
      <stop offset="70%" style="stop-color:#333333;stop-opacity:0.9" />
      <stop offset="100%" style="stop-color:#111111;stop-opacity:0.8" />
    </linearGradient>
    
    <!-- 光沢効果 - シンプルで美しい -->
    <filter id="glowFilter" x="-20%" y="-20%" width="140%" height="140%">
      <feGaussianBlur in="SourceAlpha" stdDeviation="1.5" result="blur" />
      <feOffset in="blur" dx="0" dy="0" result="offsetBlur" />
      <feSpecularLighting in="blur" surfaceScale="3" specularConstant="0.7" 
                          specularExponent="20" lighting-color="#ffffff" result="specOut">
        <fePointLight x="60" y="20" z="80" />
      </feSpecularLighting>
      <feComposite in="specOut" in2="SourceAlpha" operator="in" result="specOut" />
      <feComposite in="SourceGraphic" in2="specOut" operator="arithmetic" k1="0" k2="1" k3="1" k4="0" result="lit" />
    </filter>
    
    <!-- うろこパターン - シンプルで上品な表現 -->
    <pattern id="scalePattern" patternUnits="userSpaceOnUse" width="5" height="5" patternTransform="rotate(45)">
      <path d="M 0,0 C 2.5,0 5,2.5 5,5 C 5,2.5 2.5,0 0,0 z" fill="#333333" opacity="0.1" />
    </pattern>
  </defs>
  
  <!-- 金魚の体 -->
  <g transform="translate(60, 35)">
    <!-- 尾びれ - 豪華で流れるような形状 -->
    <path d="M -40,0 C -60,-28 -80,-12 -60,0 C -80,12 -60,28 -40,0 Z" fill="url(#tailGradient)" opacity="0.9" />
    <path d="M -28,0 C -48,-22 -65,-8 -50,0 C -65,8 -48,22 -28,0 Z" fill="url(#tailGradient)" opacity="0.95" />
    
    <!-- 尾びれの質感表現 - 透明感と上品さ -->
    <path d="M -35,0 C -50,-15 -60,-5 -50,0 C -60,5 -50,15 -35,0 Z" fill="#444444" opacity="0.3" />
    <path d="M -45,-5 C -55,-12 -65,-5 -55,0 C -65,5 -55,12 -45,5 Z" fill="#999999" opacity="0.1" />
    
    <!-- 体 - 強くて優雅な体型 -->
    <path d="M -25,0 Q -15,-22 10,-14 Q 30,-17 48,0 Q 30,17 10,14 Q -15,22 -25,0 Z" fill="url(#bodyGradient)" filter="url(#glowFilter)" />
    <path d="M -25,0 Q -15,-22 10,-14 Q 30,-17 48,0 Q 30,17 10,14 Q -15,22 -25,0 Z" fill="url(#scalePattern)" />
    
    <!-- 背びれ - 力強く優雅な表現 -->
    <path d="M 10,-14 C 20,-28 30,-22 20,-12 C 15,-6 5,-9 10,-14" fill="#333333" opacity="0.9" />
    <path d="M 10,-14 C 15,-20 23,-17 17,-10 C 13,-6 7,-9 10,-14" fill="#999999" opacity="0.1" />
    
    <!-- 腹びれ -->
    <path d="M 10,14 C 20,28 30,22 20,12 C 15,6 5,9 10,14" fill="#333333" opacity="0.9" />
    <path d="M 10,14 C 15,20 23,17 17,10 C 13,6 7,9 10,14" fill="#999999" opacity="0.1" />
    
    <!-- 胸びれ - 力強い表現 -->
    <path d="M 25,-6 C 32,-14 38,-12 34,-4 C 30,-1 27,-3 25,-6" fill="#444444" opacity="0.9" />
    <path d="M 25,6 C 32,14 38,12 34,4 C 30,1 27,3 25,6" fill="#444444" opacity="0.9" />
    
    <!-- 体の光沢 - シンプルで上品な光の反射 -->
    <ellipse cx="15" cy="-5" rx="25" ry="8" fill="white" opacity="0.15" />
    <ellipse cx="10" cy="0" rx="12" ry="4" fill="white" opacity="0.08" />
    <ellipse cx="35" cy="-3" rx="10" ry="4" fill="white" opacity="0.1" />
  </g>
  
  <!-- 水泡 -->
  <circle cx="95" cy="25" r="1.5" fill="white" opacity="0.7" />
  <circle cx="100" cy="20" r="1" fill="white" opacity="0.7" />
  <circle cx="97" cy="30" r="1" fill="white" opacity="0.7" />
</svg> 