<?xml version="1.0" encoding="UTF-8" standalone="no"?>
<svg width="140" height="85" xmlns="http://www.w3.org/2000/svg" xmlns:xlink="http://www.w3.org/1999/xlink">
  <defs>
    <!-- 金魚の体のグラデーション -->
    <linearGradient id="bodyGradient" x1="0%" y1="0%" x2="100%" y2="100%">
      <stop offset="0%" style="stop-color:#ffd280;stop-opacity:1" />
      <stop offset="50%" style="stop-color:#ffbb55;stop-opacity:1" />
      <stop offset="100%" style="stop-color:#ffa530;stop-opacity:1" />
    </linearGradient>
    
    <!-- 尾びれのグラデーション -->
    <linearGradient id="tailGradient" x1="0%" y1="0%" x2="100%" y2="100%">
      <stop offset="0%" style="stop-color:#ffcc66;stop-opacity:1" />
      <stop offset="100%" style="stop-color:#ffa530;stop-opacity:1" />
    </linearGradient>
    
    <!-- 柄のグラデーション -->
    <linearGradient id="patternGradient" x1="0%" y1="0%" x2="100%" y2="100%">
      <stop offset="0%" style="stop-color:#ffaa44;stop-opacity:1" />
      <stop offset="100%" style="stop-color:#ff9922;stop-opacity:1" />
    </linearGradient>
    
    <!-- 光沢効果 -->
    <filter id="glowFilter" x="-20%" y="-20%" width="140%" height="140%">
      <feGaussianBlur in="SourceAlpha" stdDeviation="2" result="blur" />
      <feOffset in="blur" dx="0" dy="0" result="offsetBlur" />
      <feSpecularLighting in="blur" surfaceScale="5" specularConstant="1" 
                          specularExponent="15" lighting-color="#ffffff" result="specOut">
        <fePointLight x="60" y="30" z="70" />
      </feSpecularLighting>
      <feComposite in="specOut" in2="SourceAlpha" operator="in" result="specOut" />
      <feComposite in="SourceGraphic" in2="specOut" operator="arithmetic" k1="0" k2="1" k3="1" k4="0" result="lit" />
    </filter>
    
    <!-- 水泡効果 -->
    <filter id="bubbleEffect" x="-20%" y="-20%" width="140%" height="140%">
      <feGaussianBlur in="SourceAlpha" stdDeviation="1" result="blur" />
      <feSpecularLighting in="blur" surfaceScale="3" specularConstant="1" 
                          specularExponent="15" lighting-color="#ffffff" result="specOut">
        <fePointLight x="30" y="30" z="50" />
      </feSpecularLighting>
      <feComposite in="specOut" in2="SourceAlpha" operator="in" result="specOut" />
      <feComposite in="SourceGraphic" in2="specOut" operator="arithmetic" k1="0" k2="1" k3="1" k4="0" />
    </filter>
    
    <!-- うろこパターン -->
    <pattern id="scalePattern" patternUnits="userSpaceOnUse" width="12" height="12" patternTransform="rotate(45)">
      <path d="M 0,0 C 6,0 12,6 12,12 C 12,6 6,0 0,0 z" fill="#ffaa44" opacity="0.2" />
    </pattern>
  </defs>
  
  <!-- 金魚の尾びれ -->
  <g transform="translate(0, 42.5)">
    <path d="M 55,0 C 40,-30 0,-20 20,0 C 0,20 40,30 55,0 Z" fill="url(#tailGradient)" />
    <path d="M 50,0 C 30,-25 -10,-15 15,0 C -10,15 30,25 50,0 Z" fill="url(#tailGradient)" />
    <path d="M 45,0 C 15,-20 -15,-5 10,0 C -15,5 15,20 45,0 Z" fill="url(#tailGradient)" />
  </g>
  
  <!-- 金魚の体 -->
  <ellipse cx="80" cy="42.5" rx="50" ry="35" fill="url(#bodyGradient)" filter="url(#glowFilter)" />
  <ellipse cx="80" cy="42.5" rx="50" ry="35" fill="url(#scalePattern)" />
  
  <!-- 模様 -->
  <path d="M 80,15 C 85,20 90,25 95,20 C 100,15 105,10 110,15 C 105,25 100,35 95,30 C 90,25 85,20 80,15" 
        fill="url(#patternGradient)" opacity="0.7" />
  <path d="M 80,70 C 85,65 90,60 95,65 C 100,70 105,75 110,70 C 105,60 100,50 95,55 C 90,60 85,65 80,70" 
        fill="url(#patternGradient)" opacity="0.7" />
  
  <!-- 胸びれ -->
  <path d="M 70,65 C 75,75 80,80 85,75 C 80,70 75,65 70,65" fill="#ffbb55" opacity="0.9" filter="url(#bubbleEffect)" />
  <path d="M 70,20 C 75,10 80,5 85,10 C 80,15 75,20 70,20" fill="#ffbb55" opacity="0.9" filter="url(#bubbleEffect)" />
  
  <!-- 背びれ -->
  <path d="M 90,7.5 C 95,2.5 105,5 100,12.5 C 95,20 85,12.5 90,7.5" fill="#ffbb55" filter="url(#bubbleEffect)" />
  
  <!-- 目 -->
  <circle cx="115" cy="35" r="7" fill="white" />
  <circle cx="115" cy="35" r="4" fill="black" />
  <circle cx="113" cy="33" r="1.5" fill="white" />
  
  <!-- 口 -->
  <path d="M 117,45 C 120,46 123,46 125,45" fill="none" stroke="#cc7700" stroke-width="1.5" stroke-linecap="round" />
  
  <!-- 光沢 -->
  <ellipse cx="70" cy="30" rx="20" ry="10" fill="white" opacity="0.2" />
  
  <!-- 気泡 -->
  <circle cx="130" cy="20" r="3" fill="white" opacity="0.6" />
  <circle cx="135" cy="25" r="2" fill="white" opacity="0.6" />
  <circle cx="133" cy="15" r="1.5" fill="white" opacity="0.6" />
</svg> 