<?xml version="1.0" encoding="UTF-8" standalone="no"?>
<svg width="120" height="70" xmlns="http://www.w3.org/2000/svg" xmlns:xlink="http://www.w3.org/1999/xlink">
  <defs>
    <!-- 金魚の体のグラデーション -->
    <linearGradient id="bodyGradient" x1="0%" y1="0%" x2="100%" y2="100%">
      <stop offset="0%" style="stop-color:#ff8585;stop-opacity:1" />
      <stop offset="70%" style="stop-color:#ff5555;stop-opacity:1" />
      <stop offset="100%" style="stop-color:#ff4040;stop-opacity:1" />
    </linearGradient>
    
    <!-- 尾びれのグラデーション -->
    <linearGradient id="tailGradient" x1="0%" y1="0%" x2="100%" y2="100%">
      <stop offset="0%" style="stop-color:#ff8585;stop-opacity:1" />
      <stop offset="100%" style="stop-color:#ff4040;stop-opacity:1" />
    </linearGradient>
    
    <!-- 光沢効果 -->
    <filter id="glowFilter" x="-20%" y="-20%" width="140%" height="140%">
      <feGaussianBlur in="SourceAlpha" stdDeviation="2" result="blur" />
      <feOffset in="blur" dx="0" dy="0" result="offsetBlur" />
      <feSpecularLighting in="blur" surfaceScale="5" specularConstant="1" 
                          specularExponent="15" lighting-color="#ffffff" result="specOut">
        <fePointLight x="50" y="20" z="60" />
      </feSpecularLighting>
      <feComposite in="specOut" in2="SourceAlpha" operator="in" result="specOut" />
      <feComposite in="SourceGraphic" in2="specOut" operator="arithmetic" k1="0" k2="1" k3="1" k4="0" result="lit" />
    </filter>
    
    <!-- うろこパターン -->
    <pattern id="scalePattern" patternUnits="userSpaceOnUse" width="10" height="10" patternTransform="rotate(45)">
      <path d="M 0,0 C 5,0 10,5 10,10 C 10,5 5,0 0,0 z" fill="#ff3333" opacity="0.1" />
    </pattern>
  </defs>
  
  <!-- 金魚の尾びれ -->
  <g transform="translate(5, 35)">
    <path d="M 40,0 C 30,-20 0,-15 15,0 C 0,15 30,20 40,0 Z" fill="url(#tailGradient)" />
    <path d="M 35,0 C 15,-15 -5,-5 10,0 C -5,5 15,15 35,0 Z" fill="url(#tailGradient)" />
  </g>
  
  <!-- 金魚の体 -->
  <ellipse cx="70" cy="35" rx="40" ry="28" fill="url(#bodyGradient)" filter="url(#glowFilter)" />
  <ellipse cx="70" cy="35" rx="40" ry="28" fill="url(#scalePattern)" />
  
  <!-- 胸びれ -->
  <path d="M 60,50 C 65,55 70,60 75,55 C 70,50 65,45 60,50" fill="#ff6666" opacity="0.9" />
  <path d="M 60,20 C 65,15 70,10 75,15 C 70,20 65,25 60,20" fill="#ff6666" opacity="0.9" />
  
  <!-- 背びれ -->
  <path d="M 70,7 C 75,2 80,5 75,10 C 70,15 65,12 70,7" fill="#ff6666" />
  
  <!-- 目 -->
  <circle cx="95" cy="30" r="6" fill="white" />
  <circle cx="95" cy="30" r="4" fill="black" />
  <circle cx="93" cy="28" r="1.5" fill="white" />
  
  <!-- 光沢 -->
  <ellipse cx="60" cy="25" rx="15" ry="8" fill="white" opacity="0.2" />
  
  <!-- 気泡 -->
  <circle cx="105" cy="20" r="2" fill="white" opacity="0.7" />
  <circle cx="110" cy="15" r="1.5" fill="white" opacity="0.7" />
  <circle cx="108" cy="25" r="1" fill="white" opacity="0.7" />
</svg> 