<?xml version="1.0" encoding="UTF-8" standalone="no"?>
<svg width="140" height="90" xmlns="http://www.w3.org/2000/svg" xmlns:xlink="http://www.w3.org/1999/xlink">
  <defs>
    <!-- 金魚の体のグラデーション -->
    <linearGradient id="bodyGradient" x1="0%" y1="0%" x2="100%" y2="100%">
      <stop offset="0%" style="stop-color:#ffd700;stop-opacity:1" />
      <stop offset="50%" style="stop-color:#ffaa00;stop-opacity:1" />
      <stop offset="100%" style="stop-color:#cc8800;stop-opacity:1" />
    </linearGradient>
    
    <!-- 尾びれのグラデーション -->
    <linearGradient id="tailGradient" x1="0%" y1="0%" x2="100%" y2="100%">
      <stop offset="0%" style="stop-color:#ffcc00;stop-opacity:1" />
      <stop offset="100%" style="stop-color:#dd9900;stop-opacity:1" />
    </linearGradient>
    
    <!-- キラキラ効果 -->
    <filter id="sparkleFilter" x="-30%" y="-30%" width="160%" height="160%">
      <feGaussianBlur in="SourceAlpha" stdDeviation="2" result="blur" />
      <feSpecularLighting in="blur" surfaceScale="8" specularConstant="1.5" 
                          specularExponent="20" lighting-color="#ffffff" result="specOut">
        <fePointLight x="60" y="30" z="80" />
      </feSpecularLighting>
      <feComposite in="specOut" in2="SourceAlpha" operator="in" result="specOut" />
      <feComposite in="SourceGraphic" in2="specOut" operator="arithmetic" k1="0" k2="1" k3="1" k4="0" result="lit" />
    </filter>
    
    <!-- うろこパターン -->
    <pattern id="scalePattern" patternUnits="userSpaceOnUse" width="10" height="10" patternTransform="rotate(45)">
      <path d="M 0,0 C 5,0 10,5 10,10 C 10,5 5,0 0,0 z" fill="#ffcc44" opacity="0.3" />
    </pattern>
    
    <!-- 質感パターン -->
    <pattern id="texturePattern" patternUnits="userSpaceOnUse" width="20" height="20">
      <rect width="20" height="20" fill="none" />
      <circle cx="10" cy="10" r="2" fill="#ffdd33" opacity="0.4" />
      <circle cx="0" cy="0" r="1.5" fill="#ffdd33" opacity="0.4" />
      <circle cx="20" cy="20" r="1.5" fill="#ffdd33" opacity="0.4" />
      <circle cx="0" cy="20" r="1.5" fill="#ffdd33" opacity="0.4" />
      <circle cx="20" cy="0" r="1.5" fill="#ffdd33" opacity="0.4" />
    </pattern>
  </defs>
  
  <!-- 豪華な和金の体 -->
  <g transform="translate(50, 45)">
    <!-- 豪華な長い尾びれ -->
    <path d="M -30,0 C -45,-40 -85,-15 -60,0 C -85,15 -45,40 -30,0 Z" fill="url(#tailGradient)" opacity="0.95" filter="url(#sparkleFilter)" />
    <path d="M -25,0 C -40,-25 -65,-10 -45,0 C -65,10 -40,25 -25,0 Z" fill="url(#tailGradient)" opacity="0.9" />
    
    <!-- 尾びれの質感表現 -->
    <path d="M -40,-5 C -50,-25 -70,-10 -55,0 C -70,10 -50,25 -40,5 Z" fill="#ffdd44" opacity="0.3" />
    <path d="M -35,0 C -50,-15 -60,-5 -50,0 C -60,5 -50,15 -35,0 Z" fill="#ffffff" opacity="0.2" />
    
    <!-- 体 - 豪華な形状 -->
    <path d="M -25,0 Q -5,-35 25,-15 Q 50,-20 65,0 Q 50,20 25,15 Q -5,35 -25,0 Z" fill="url(#bodyGradient)" filter="url(#sparkleFilter)" />
    <path d="M -25,0 Q -5,-35 25,-15 Q 50,-20 65,0 Q 50,20 25,15 Q -5,35 -25,0 Z" fill="url(#scalePattern)" />
    <path d="M -25,0 Q -5,-35 25,-15 Q 50,-20 65,0 Q 50,20 25,15 Q -5,35 -25,0 Z" fill="url(#texturePattern)" />
    
    <!-- 背びれ - 立派な形状 -->
    <path d="M 20,-15 C 25,-35 45,-30 35,-15 C 25,-5 10,-5 20,-15" fill="#ffbb22" opacity="0.9" />
    <path d="M 20,-15 C 22,-25 35,-25 30,-10 C 25,-3 15,-5 20,-15" fill="#ffee88" opacity="0.3" />
    
    <!-- 腹びれ -->
    <path d="M 15,15 C 20,35 40,30 30,15 C 20,5 5,5 15,15" fill="#ffbb22" opacity="0.9" />
    <path d="M 15,15 C 17,25 30,25 25,10 C 20,3 10,5 15,15" fill="#ffee88" opacity="0.3" />
    
    <!-- 胸びれ - 豪華な表現 -->
    <path d="M 40,-8 C 50,-20 60,-15 55,-5 C 50,0 45,-3 40,-8" fill="#ffcc44" opacity="0.9" />
    <path d="M 40,8 C 50,20 60,15 55,5 C 50,0 45,3 40,8" fill="#ffcc44" opacity="0.9" />
    
    <!-- 目 - 特徴的な表現 -->
    <circle cx="55" cy="-5" r="4.5" fill="white" />
    <circle cx="55" cy="-5" r="2.5" fill="black" />
    <circle cx="56" cy="-6" r="1" fill="white" />
    
    <!-- 口 -->
    <path d="M 62,-1 C 66,0 66,1 62,2" fill="none" stroke="#aa6600" stroke-width="0.8" />
    
    <!-- 体の光沢と特徴 -->
    <ellipse cx="25" cy="-5" rx="25" ry="8" fill="white" opacity="0.2" />
    <ellipse cx="15" cy="0" rx="15" ry="5" fill="white" opacity="0.15" />
    
    <!-- 金色の特徴的な模様 -->
    <path d="M 0,-12 C 10,-20 20,-15 25,-10 C 20,-5 10,-5 0,-12" fill="#ffcc00" opacity="0.3" />
    <path d="M 0,12 C 10,20 20,15 25,10 C 20,5 10,5 0,12" fill="#ffcc00" opacity="0.3" />
    <path d="M 35,0 C 40,-10 50,-10 45,0 C 50,10 40,10 35,0" fill="#ffcc00" opacity="0.3" />
  </g>
  
  <!-- キラキラ効果 -->
  <circle cx="30" cy="25" r="1.5" fill="white" opacity="0.8" />
  <circle cx="85" cy="15" r="1" fill="white" opacity="0.8" />
  <circle cx="100" cy="70" r="1.2" fill="white" opacity="0.8" />
  <circle cx="120" cy="40" r="1.3" fill="white" opacity="0.8" />
  <circle cx="70" cy="60" r="1" fill="white" opacity="0.8" />
</svg> 