<?xml version="1.0" encoding="UTF-8" standalone="no"?>
<svg width="120" height="70" xmlns="http://www.w3.org/2000/svg" xmlns:xlink="http://www.w3.org/1999/xlink">
  <defs>
    <!-- 青い金魚の体のグラデーション - シンプルで美しい青色 -->
    <linearGradient id="bodyGradient" x1="0%" y1="0%" x2="100%" y2="100%">
      <stop offset="0%" style="stop-color:#80c2ff;stop-opacity:1" />
      <stop offset="50%" style="stop-color:#4d94ff;stop-opacity:1" />
      <stop offset="100%" style="stop-color:#005ce6;stop-opacity:1" />
    </linearGradient>
    
    <!-- 尾びれのグラデーション - 透明感のある青色 -->
    <linearGradient id="tailGradient" x1="0%" y1="0%" x2="100%" y2="100%">
      <stop offset="0%" style="stop-color:#99ccff;stop-opacity:0.9" />
      <stop offset="70%" style="stop-color:#66a3ff;stop-opacity:0.9" />
      <stop offset="100%" style="stop-color:#3385ff;stop-opacity:0.8" />
    </linearGradient>
    
    <!-- 光沢効果 - シンプルで美しい -->
    <filter id="glowFilter" x="-20%" y="-20%" width="140%" height="140%">
      <feGaussianBlur in="SourceAlpha" stdDeviation="1.5" result="blur" />
      <feOffset in="blur" dx="0" dy="0" result="offsetBlur" />
      <feSpecularLighting in="blur" surfaceScale="3" specularConstant="0.8" 
                          specularExponent="20" lighting-color="#ffffff" result="specOut">
        <fePointLight x="60" y="20" z="80" />
      </feSpecularLighting>
      <feComposite in="specOut" in2="SourceAlpha" operator="in" result="specOut" />
      <feComposite in="SourceGraphic" in2="specOut" operator="arithmetic" k1="0" k2="1" k3="1" k4="0" result="lit" />
    </filter>
    
    <!-- うろこパターン - シンプルな表現 -->
    <pattern id="scalePattern" patternUnits="userSpaceOnUse" width="5" height="5" patternTransform="rotate(45)">
      <path d="M 0,0 C 2.5,0 5,2.5 5,5 C 5,2.5 2.5,0 0,0 z" fill="#3377ff" opacity="0.1" />
    </pattern>
  </defs>
  
  <!-- 金魚の体 -->
  <g transform="translate(60, 35)">
    <!-- 尾びれ - 流れるような形状 -->
    <path d="M -30,0 C -45,-20 -60,-8 -45,0 C -60,8 -45,20 -30,0 Z" fill="url(#tailGradient)" opacity="0.9" />
    <path d="M -20,0 C -35,-15 -45,-5 -35,0 C -45,5 -35,15 -20,0 Z" fill="url(#tailGradient)" opacity="0.95" />
    
    <!-- 尾びれの質感表現 - 透明感と繊細さ -->
    <path d="M -25,0 C -35,-10 -42,-4 -35,0 C -42,4 -35,10 -25,0 Z" fill="#6699ff" opacity="0.2" />
    <path d="M -35,-4 C -42,-8 -48,-4 -42,0 C -48,4 -42,8 -35,4 Z" fill="#ffffff" opacity="0.2" />
    
    <!-- 体 - シンプルでスマートな体型 -->
    <path d="M -18,0 Q -10,-16 10,-8 Q 25,-10 35,0 Q 25,10 10,8 Q -10,16 -18,0 Z" fill="url(#bodyGradient)" filter="url(#glowFilter)" />
    <path d="M -18,0 Q -10,-16 10,-8 Q 25,-10 35,0 Q 25,10 10,8 Q -10,16 -18,0 Z" fill="url(#scalePattern)" />
    
    <!-- 背びれ - シンプルな表現 -->
    <path d="M 0,-8 C 8,-18 15,-15 10,-6 C 5,-3 -2,-5 0,-8" fill="#5599ff" opacity="0.8" />
    <path d="M 0,-8 C 5,-12 10,-10 7,-5 C 4,-2 -1,-4 0,-8" fill="#ffffff" opacity="0.2" />
    
    <!-- 腹びれ -->
    <path d="M 0,8 C 8,18 15,15 10,6 C 5,3 -2,5 0,8" fill="#5599ff" opacity="0.8" />
    <path d="M 0,8 C 5,12 10,10 7,5 C 4,2 -1,4 0,8" fill="#ffffff" opacity="0.2" />
    
    <!-- 胸びれ - シンプルな表現 -->
    <path d="M 18,-4 C 22,-9 25,-7 22,-2 C 20,0 18,-2 18,-4" fill="#6699ff" opacity="0.8" />
    <path d="M 18,4 C 22,9 25,7 22,2 C 20,0 18,2 18,4" fill="#6699ff" opacity="0.8" />
    
    <!-- 体の光沢 - シンプルで美しい光の反射 -->
    <ellipse cx="10" cy="-3" rx="12" ry="4" fill="white" opacity="0.2" />
    <ellipse cx="5" cy="0" rx="6" ry="2" fill="white" opacity="0.15" />
    <ellipse cx="22" cy="-2" rx="6" ry="2" fill="white" opacity="0.2" />
  </g>
  
  <!-- 水泡 -->
  <circle cx="85" cy="25" r="1.5" fill="white" opacity="0.7" />
  <circle cx="90" cy="20" r="1" fill="white" opacity="0.7" />
  <circle cx="87" cy="30" r="1" fill="white" opacity="0.7" />
</svg> 