<?xml version="1.0" encoding="UTF-8" standalone="no"?>
<svg width="120" height="120" xmlns="http://www.w3.org/2000/svg" xmlns:xlink="http://www.w3.org/1999/xlink">
  <defs>
    <!-- グラデーション定義 -->
    <radialGradient id="poiGradient" cx="50%" cy="50%" r="50%" fx="50%" fy="50%">
      <stop offset="0%" style="stop-color:#ffffff;stop-opacity:0.95" />
      <stop offset="70%" style="stop-color:#f8f8f8;stop-opacity:0.9" />
      <stop offset="100%" style="stop-color:#f0f0f0;stop-opacity:0.8" />
    </radialGradient>
    
    <!-- 紙のテクスチャ -->
    <pattern id="paperTexture" x="0" y="0" width="100" height="100" patternUnits="userSpaceOnUse">
      <rect width="120" height="120" fill="#ffffff" />
      <rect width="120" height="120" fill="url(#noiseFilter)" opacity="0.05" />
    </pattern>
    
    <!-- ノイズフィルター -->
    <filter id="noiseFilter">
      <feTurbulence type="fractalNoise" baseFrequency="0.65" numOctaves="3" stitchTiles="stitch" />
      <feColorMatrix type="saturate" values="0" />
    </filter>
    
    <!-- 枠用フィルター -->
    <filter id="dropShadow" x="-20%" y="-20%" width="140%" height="140%">
      <feDropShadow dx="0" dy="1" stdDeviation="1.5" flood-color="#000000" flood-opacity="0.2" />
    </filter>
  </defs>
  
  <!-- 半透明の影 -->
  <ellipse cx="60" cy="65" rx="50" ry="48" fill="rgba(0,0,0,0.1)" filter="blur(3px)" />
  
  <!-- ポイの本体 -->
  <circle cx="60" cy="60" r="55" fill="url(#paperTexture)" filter="url(#dropShadow)" />
  <circle cx="60" cy="60" r="52" fill="url(#poiGradient)" stroke="#e8e8e8" stroke-width="0.5" />
  
  <!-- 内側のパターン -->
  <circle cx="60" cy="60" r="45" fill="none" stroke="#ddd" stroke-width="0.7" stroke-dasharray="3,2" />
  <circle cx="60" cy="60" r="35" fill="none" stroke="#eee" stroke-width="0.5" stroke-dasharray="2,2" />
  
  <!-- 装飾的な線 -->
  <path d="M 60 15 C 40 35, 40 85, 60 105 C 80 85, 80 35, 60 15" fill="none" stroke="#ddd" stroke-width="0.7" />
  <path d="M 15 60 C 35 40, 85 40, 105 60 C 85 80, 35 80, 15 60" fill="none" stroke="#ddd" stroke-width="0.7" />
  
  <!-- 持ち手 -->
  <rect x="85" y="55" width="25" height="10" rx="3" ry="3" fill="#f5cf87" stroke="#e3bb6d" stroke-width="0.7" />
  <rect x="80" y="57" width="10" height="6" rx="2" ry="2" fill="#f5cf87" stroke="#e3bb6d" stroke-width="0.7" />

  <!-- 持ち手の木目テクスチャ -->
  <line x1="90" y1="55" x2="90" y2="65" stroke="#e3bb6d" stroke-width="0.3" />
  <line x1="95" y1="55" x2="95" y2="65" stroke="#e3bb6d" stroke-width="0.3" />
  <line x1="100" y1="55" x2="100" y2="65" stroke="#e3bb6d" stroke-width="0.3" />
  <line x1="105" y1="55" x2="105" y2="65" stroke="#e3bb6d" stroke-width="0.3" />
  
  <!-- 光沢エフェクト -->
  <ellipse cx="45" cy="40" rx="25" ry="15" fill="white" opacity="0.25" />
</svg> 