<?xml version="1.0" standalone="no"?>
<!DOCTYPE svg PUBLIC "-//W3C//DTD SVG 20010904//EN"
 "http://www.w3.org/TR/2001/REC-SVG-20010904/DTD/svg10.dtd">
<svg version="1.0" xmlns="http://www.w3.org/2000/svg"
 width="563.000000pt" height="750.000000pt" viewBox="0 0 563.000000 750.000000"
 preserveAspectRatio="xMidYMid meet">

<defs>
  <!-- ポイのグラデーション - 赤色系 -->
  <linearGradient id="redGradient" x1="0%" y1="0%" x2="100%" y2="100%">
    <stop offset="0%" style="stop-color:#FF6B6B;stop-opacity:1" />
    <stop offset="50%" style="stop-color:#FF3333;stop-opacity:1" />
    <stop offset="100%" style="stop-color:#CC0000;stop-opacity:1" />
  </linearGradient>
  
  <!-- ポイの持ち手部分のグラデーション - 木目調 -->
  <linearGradient id="woodGradient" x1="0%" y1="0%" x2="100%" y2="100%">
    <stop offset="0%" style="stop-color:#A67C52;stop-opacity:1" />
    <stop offset="50%" style="stop-color:#8C6239;stop-opacity:1" />
    <stop offset="100%" style="stop-color:#6D4C2F;stop-opacity:1" />
  </linearGradient>
  
  <!-- 光沢効果 -->
  <filter id="glowFilter" x="-20%" y="-20%" width="140%" height="140%">
    <feGaussianBlur in="SourceAlpha" stdDeviation="2" result="blur" />
    <feOffset in="blur" dx="0" dy="0" result="offsetBlur" />
    <feSpecularLighting in="blur" surfaceScale="5" specularConstant="0.7" 
                        specularExponent="20" lighting-color="#ffffff" result="specOut">
      <fePointLight x="250" y="250" z="150" />
    </feSpecularLighting>
    <feComposite in="specOut" in2="SourceAlpha" operator="in" result="specOut" />
    <feComposite in="SourceGraphic" in2="specOut" operator="arithmetic" k1="0" k2="1" k3="1" k4="0" result="lit" />
  </filter>
</defs>

<g transform="translate(0.000000,750.000000) scale(0.100000,-0.100000)" stroke="none">
<!-- ポイ本体部分の赤色の枠 -->
<path d="M2591 7449 c-408 -43 -832 -219 -1151 -476 -90 -73 -260 -243 -331
-333 -396 -494 -560 -1169 -434 -1785 182 -893 879 -1573 1767 -1724 l98 -17
2 -1310 3 -1309 33 -67 c39 -80 96 -132 166 -153 62 -19 80 -19 142 0 70 21
127 73 166 153 l33 67 3 1309 2 1310 98 17 c584 99 1117 445 1443 938 374 565
467 1259 253 1901 -76 230 -215 485 -363 670 -71 90 -241 260 -331 333 -442
358 -1037 534 -1599 476z" fill="url(#redGradient)" filter="url(#glowFilter)" />

<!-- ポイの内部 - 白色 -->
<path d="M2600 7209 c-666 -69 -1254 -480 -1550 -1083 -263 -538 -263 -1170 1
-1707 103 -209 211 -360 377 -525 273 -272 622 -457 1015 -536 100 -21 140
-23 377 -23 249 1 273 2 390 27 221 48 464 143 621 244 38 24 72 44 75 44 18
0 212 159 294 240 163 162 277 321 379 529 358 727 223 1604 -337 2192 -422
443 -1021 661 -1642 598z" fill="#FFFFFF" />

</g>
</svg>
